REM DIRINDEX 1\2,1\3,1\4
REM DIRNAME folder01,folder02,folder03,folder04
TITLE ""
FILE "092 092_Lesson 10_TOEFL_3900.mp3" MP3
  TRACK 01 AUDIO
    TITLE "4:cjc151_4001"
    INDEX 01 00:00:00
  TRACK 02 AUDIO
    TITLE "0:"
    INDEX 01 00:01:38
  TRACK 03 AUDIO
    TITLE "2:cjc151_4002"
    INDEX 01 00:02:18
  TRACK 04 AUDIO
    TITLE "0:"
    INDEX 01 00:03:27
  TRACK 05 AUDIO
    TITLE "3:cjc151_4003"
    INDEX 01 00:05:07
  TRACK 06 AUDIO
    TITLE "0:"
    INDEX 01 00:08:66
  TRACK 07 AUDIO
    TITLE "2:cjc151_4004"
    INDEX 01 00:10:45
  TRACK 08 AUDIO
    TITLE "0:"
    INDEX 01 00:11:68
  TRACK 09 AUDIO
    TITLE "3:cjc151_4005"
    INDEX 01 00:13:45
  TRACK 10 AUDIO
    TITLE "0:"
    INDEX 01 00:17:69
  TRACK 11 AUDIO
    TITLE "2:cjc151_4006"
    INDEX 01 00:19:48
  TRACK 12 AUDIO
    TITLE "0:"
    INDEX 01 00:20:51
  TRACK 13 AUDIO
    TITLE "3:cjc151_4007"
    INDEX 01 00:22:30
  TRACK 14 AUDIO
    TITLE "0:"
    INDEX 01 00:26:56
  TRACK 15 AUDIO
    TITLE "2:cjc151_4008"
    INDEX 01 00:28:35
  TRACK 16 AUDIO
    TITLE "0:"
    INDEX 01 00:29:44
  TRACK 17 AUDIO
    TITLE "3:cjc151_4009"
    INDEX 01 00:31:24
  TRACK 18 AUDIO
    TITLE "0:"
    INDEX 01 00:35:04
  TRACK 19 AUDIO
    TITLE "2:cjc151_4010"
    INDEX 01 00:36:56
  TRACK 20 AUDIO
    TITLE "0:"
    INDEX 01 00:37:44
  TRACK 21 AUDIO
    TITLE "3:cjc151_4011"
    INDEX 01 00:39:23
  TRACK 22 AUDIO
    TITLE "0:"
    INDEX 01 00:43:17
  TRACK 23 AUDIO
    TITLE "2:cjc151_4012"
    INDEX 01 00:44:71
  TRACK 24 AUDIO
    TITLE "0:"
    INDEX 01 00:46:06
  TRACK 25 AUDIO
    TITLE "3:cjc151_4013"
    INDEX 01 00:47:52
  TRACK 26 AUDIO
    TITLE "0:"
    INDEX 01 00:51:28
  TRACK 27 AUDIO
    TITLE "2:cjc151_4014"
    INDEX 01 00:53:04
  TRACK 28 AUDIO
    TITLE "0:"
    INDEX 01 00:54:05
  TRACK 29 AUDIO
    TITLE "3:cjc151_4015"
    INDEX 01 00:55:59
  TRACK 30 AUDIO
    TITLE "0:"
    INDEX 01 01:00:15
  TRACK 31 AUDIO
    TITLE "2:cjc151_4016"
    INDEX 01 01:01:74
  TRACK 32 AUDIO
    TITLE "0:"
    INDEX 01 01:03:16
  TRACK 33 AUDIO
    TITLE "3:cjc151_4017"
    INDEX 01 01:04:66
  TRACK 34 AUDIO
    TITLE "0:"
    INDEX 01 01:08:17
  TRACK 35 AUDIO
    TITLE "2:cjc151_4018"
    INDEX 01 01:09:71
  TRACK 36 AUDIO
    TITLE "0:"
    INDEX 01 01:11:09
  TRACK 37 AUDIO
    TITLE "3:cjc151_4019"
    INDEX 01 01:12:64
  TRACK 38 AUDIO
    TITLE "0:"
    INDEX 01 01:17:55
  TRACK 39 AUDIO
    TITLE "2:cjc151_4020"
    INDEX 01 01:19:32
  TRACK 40 AUDIO
    TITLE "0:"
    INDEX 01 01:21:55
  TRACK 41 AUDIO
    TITLE "3:cjc151_4021"
    INDEX 01 01:23:36
  TRACK 42 AUDIO
    TITLE "0:"
    INDEX 01 01:27:71
  TRACK 43 AUDIO
    TITLE "2:cjc151_4022"
    INDEX 01 01:29:56
  TRACK 44 AUDIO
    TITLE "0:"
    INDEX 01 01:30:60
  TRACK 45 AUDIO
    TITLE "3:cjc151_4023"
    INDEX 01 01:32:41
  TRACK 46 AUDIO
    TITLE "0:"
    INDEX 01 01:36:52
  TRACK 47 AUDIO
    TITLE "2:cjc151_4024"
    INDEX 01 01:38:34
  TRACK 48 AUDIO
    TITLE "0:"
    INDEX 01 01:39:31
  TRACK 49 AUDIO
    TITLE "3:cjc151_4025"
    INDEX 01 01:41:10
  TRACK 50 AUDIO
    TITLE "0:"
    INDEX 01 01:45:16
  TRACK 51 AUDIO
    TITLE "2:cjc151_4026"
    INDEX 01 01:46:70
  TRACK 52 AUDIO
    TITLE "0:"
    INDEX 01 01:47:56
  TRACK 53 AUDIO
    TITLE "3:cjc151_4027"
    INDEX 01 01:49:35
  TRACK 54 AUDIO
    TITLE "0:"
    INDEX 01 01:52:26
  TRACK 55 AUDIO
    TITLE "2:cjc151_4028"
    INDEX 01 01:54:07
  TRACK 56 AUDIO
    TITLE "0:"
    INDEX 01 01:55:15
  TRACK 57 AUDIO
    TITLE "3:cjc151_4029"
    INDEX 01 01:56:65
  TRACK 58 AUDIO
    TITLE "0:"
    INDEX 01 01:59:73
  TRACK 59 AUDIO
    TITLE "2:cjc151_4030"
    INDEX 01 02:01:50
  TRACK 60 AUDIO
    TITLE "0:"
    INDEX 01 02:02:44
  TRACK 61 AUDIO
    TITLE "3:cjc151_4031"
    INDEX 01 02:04:23
  TRACK 62 AUDIO
    TITLE "0:"
    INDEX 01 02:07:53
  TRACK 63 AUDIO
    TITLE "2:cjc151_4032"
    INDEX 01 02:09:32
  TRACK 64 AUDIO
    TITLE "0:"
    INDEX 01 02:10:43
  TRACK 65 AUDIO
    TITLE "3:cjc151_4033"
    INDEX 01 02:12:23
  TRACK 66 AUDIO
    TITLE "0:"
    INDEX 01 02:15:60
  TRACK 67 AUDIO
    TITLE "2:cjc151_4034"
    INDEX 01 02:17:42
  TRACK 68 AUDIO
    TITLE "0:"
    INDEX 01 02:18:37
  TRACK 69 AUDIO
    TITLE "3:cjc151_4035"
    INDEX 01 02:20:12
  TRACK 70 AUDIO
    TITLE "0:"
    INDEX 01 02:23:32
  TRACK 71 AUDIO
    TITLE "2:cjc151_4036"
    INDEX 01 02:25:14
  TRACK 72 AUDIO
    TITLE "0:"
    INDEX 01 02:26:11
  TRACK 73 AUDIO
    TITLE "3:cjc151_4037"
    INDEX 01 02:27:71
  TRACK 74 AUDIO
    TITLE "0:"
    INDEX 01 02:32:04
  TRACK 75 AUDIO
    TITLE "2:cjc151_4038"
    INDEX 01 02:33:60
  TRACK 76 AUDIO
    TITLE "0:"
    INDEX 01 02:34:66
  TRACK 77 AUDIO
    TITLE "3:cjc151_4039"
    INDEX 01 02:36:43
  TRACK 78 AUDIO
    TITLE "0:"
    INDEX 01 02:40:21
  TRACK 79 AUDIO
    TITLE "2:cjc151_4040"
    INDEX 01 02:42:00
  TRACK 80 AUDIO
    TITLE "0:"
    INDEX 01 02:43:19
  TRACK 81 AUDIO
    TITLE "3:cjc151_4041"
    INDEX 01 02:44:68
  TRACK 82 AUDIO
    TITLE "0:"
    INDEX 01 02:48:05
  TRACK 83 AUDIO
    TITLE "2:cjc151_4042"
    INDEX 01 02:49:57
  TRACK 84 AUDIO
    TITLE "0:"
    INDEX 01 02:50:47
  TRACK 85 AUDIO
    TITLE "3:cjc151_4043"
    INDEX 01 02:52:26
  TRACK 86 AUDIO
    TITLE "0:"
    INDEX 01 02:55:40
  TRACK 87 AUDIO
    TITLE "2:cjc151_4044"
    INDEX 01 02:57:23
  TRACK 88 AUDIO
    TITLE "0:"
    INDEX 01 02:58:35
  TRACK 89 AUDIO
    TITLE "3:cjc151_4045"
    INDEX 01 03:00:16
  TRACK 90 AUDIO
    TITLE "0:"
    INDEX 01 03:04:53
